PathFileType	4	(X/Y/Z)	Demo_SinglePerson_P1_0-412.trc
DataRate	CameraRate	NumFrames	NumMarkers	Units	OrigDataRate	OrigDataStartFrame	OrigNumFrames
29	29	9	22	m	29	103	412
Frame#	Time	Hip			RHip			RKnee			RAnkle			RBigToe			RSmallToe			RHeel			LHip			LKnee			LAnkle			LBigToe			LSmallToe			LHeel			Neck			Head			Nose			RShoulder			RElbow			RWrist			LShoulder			LElbow			LWrist			
		X1	Y1	Z1	X2	Y2	Z2	X3	Y3	Z3	X4	Y4	Z4	X5	Y5	Z5	X6	Y6	Z6	X7	Y7	Z7	X8	Y8	Z8	X9	Y9	Z9	X10	Y10	Z10	X11	Y11	Z11	X12	Y12	Z12	X13	Y13	Z13	X14	Y14	Z14	X15	Y15	Z15	X16	Y16	Z16	X17	Y17	Z17	X18	Y18	Z18	X19	Y19	Z19	X20	Y20	Z20	X21	Y21	Z21	X22	Y22	Z22	
103	3.5517241379310347	4.888040614874146	-0.3488695677156473	-1.444024676521832	4.705414015581467	-0.2805106877826559	-1.2200884584185172	4.259817410878491	-0.7306378988300154	-1.112825054706759	4.031209882334098	-1.2378520298229465	-1.0228141785035925	4.417619219282415	-1.5421367922365479	-1.2850783332146642	4.080643806272343	-1.3191931961051742	-1.0540558006068002	3.990883646716828	-1.3197982819736265	-0.9867210245403432	5.04573176809774	-0.461326308893588	-1.663353250683858	4.819160488797794	-1.1168813406841733	-1.646797175391527	5.091493227821918	-2.1805241799785486	-1.6558580562703022	8.03385491407124	-4.414237636938597	-3.2374210583025507	8.185568386909152	-4.563481029129903	-3.2740217796883555	4.883470010320415	-2.141603479252523	-1.4792831749673758	5.966289827555455	0.5674848710943894	-1.8797226702659964	6.389361422731446	0.976687930610434	-2.093344239174172	6.218909948707326	0.7012528595598466	-2.155553346638803	5.5706533199347925	0.44763165904594643	-1.3910030895649181	5.120884702417645	0.2185182245652873	-1.0953901270125301	5.43318670600074	0.24936405560468572	-1.4808850053504992	6.0093549160362	0.34371113356885036	-2.214177558628565	5.983685842582825	-0.15554745811598064	-2.5439516558431396	6.179111732266231	-0.007845668464761436	-2.721594233048143
104	3.586206896551724	4.876907225670564	-0.35767906961980783	-1.4393543461594691	4.698045016348694	-0.2917900724038868	-1.2224120368619034	4.251059338291829	-0.7353986878100895	-1.1079344469105643	4.029013028020697	-1.2418400625397794	-1.0210065458058881	4.4740197750337805	-1.567241225169239	-1.326129189511819	4.105336045843646	-1.3413628612445754	-1.0704890573430081	3.9633166181914894	-1.3096478422950757	-0.9673289954226961	5.0396651064100695	-0.47350358744540366	-1.6638677313240733	4.8098294145140414	-1.123052954997533	-1.639210896273982	5.008264635044624	-2.155778980682978	-1.5891669058261524	8.114454846127643	-4.559669253215017	-3.1787892460815104	8.20298438109745	-4.643911828133936	-3.2014351881558416	4.774851881081704	-2.0915443862578176	-1.4034486534547883	5.957383803544912	0.5525569837128119	-1.885122190959663	6.404372537751489	0.9871325129468338	-2.110275108547793	6.22867671082718	0.6944704514932952	-2.1830205202141575	5.578219526516637	0.44097411751576626	-1.4146998519019214	5.133918457758127	0.1989928311830737	-1.1438934492117667	5.463531363007304	0.22580188352681232	-1.553455298626985	6.006908741371563	0.34471369755116527	-2.209451085856982	5.972066099199217	-0.1608485854145294	-2.531999635808259	6.213838014805941	-0.018269532933985824	-2.7748142074311395
105	3.6206896551724137	4.875901325458464	-0.35917233423306305	-1.4394006708582412	4.7217189283521614	-0.29676169947234404	-1.2484529994684792	4.267270296007858	-0.7413563263559347	-1.1224448558663331	4.0298723977216975	-1.2340805095771636	-1.0219851505820121	4.6971618391635985	-1.6914018214975688	-1.4845841237273107	4.205068487494992	-1.3880943035164695	-1.1415722814858231	3.912321388198499	-1.2693062718721602	-0.9335623598706845	5.028967742896224	-0.4700849427956226	-1.651786515587007	4.777942262783055	-1.1014343493448033	-1.6104215283888983	4.86111412442382	-2.0607698907852257	-1.4969973282980054	8.008625060819082	-4.5026980968095645	-3.099013032900235	7.925839855778809	-4.468597779597454	-3.0245651845799237	4.596747532841238	-1.9839365879487145	-1.292740027874	5.970379775796959	0.564434049188423	-1.8911863115515597	6.426540765816891	0.9992639617327272	-2.1412372596298934	6.257066589028989	0.7011723488381908	-2.2276988945636025	5.5900544874646	0.4393475913654536	-1.4368106902532796	5.169043469380513	0.19284901657734743	-1.1999889672184016	5.489881553177467	0.19305851116716496	-1.6289460470719088	6.020188503923152	0.3666092657426703	-2.207954521775442	5.9732696909403264	-0.14832792594223668	-2.5269438092634466	6.263927325099538	-0.0035385793998016944	-2.836054890281894
106	3.6551724137931036	4.883830523686544	-0.3583380031079137	-1.4463970125608723	4.7271269041071875	-0.2949924540956228	-1.25210226544543	4.28713016911094	-0.7504750351473048	-1.1408838136271857	3.992450129950288	-1.1924975544688543	-0.995638373953029	4.766195941737597	-1.7165393838602736	-1.5376801316369801	4.262646472651344	-1.3981851843377175	-1.1852295658472343	3.8927318161674114	-1.223850960192077	-0.9222764120330912	5.039739281829846	-0.47119899073181837	-1.6627421199351542	4.736411558314968	-1.0856505570002066	-1.5738909756523942	4.792548671587337	-2.029162948006088	-1.4485552235920247	7.778616167907494	-4.320903282880654	-2.994577559798965	7.772172708272841	-4.362683251060918	-2.9375626098609815	4.577563925334863	-1.994871767122163	-1.2707475427995953	5.996672084807066	0.572298589905458	-1.926344542476911	6.440903989988971	0.9999782245108785	-2.1733936485060545	6.276930597867528	0.6931785415032495	-2.275188126487832	5.624152610630107	0.4485814965832323	-1.4777747319810253	5.199786025272835	0.18302917914019226	-1.2549170793500053	5.483363802515858	0.160671149818969	-1.6570973004915157	6.024190405745515	0.3819022007027333	-2.1985907589374225	5.99352784630679	-0.1278142102536834	-2.5418082992466826	6.289915743304151	-0.014109281258927306	-2.8776070882970974
107	3.689655172413793	4.902604827938459	-0.3616760788992756	-1.4665648737663903	4.76361050448269	-0.3079792254377593	-1.296448856885497	4.294709171751626	-0.7744088191061209	-1.1548870213225315	4.00087781439846	-1.2140655172703738	-1.0013314894258694	4.982640357632988	-1.9087367915868534	-1.669894288843604	4.539517572267752	-1.6173676513241633	-1.369233277647388	3.879157150004541	-1.2393113653520889	-0.9116345928660203	5.048048236991894	-0.4688426582453719	-1.6695366265304004	4.700322412155871	-1.0845344374751407	-1.5434490309920246	4.794301233890328	-2.046415598771978	-1.4423862174147377	7.934431426551455	-4.447498330743582	-3.0614250975788804	7.849904285432192	-4.435535668177215	-2.9587673042655833	4.598137810241589	-2.0329044956519704	-1.2713802127973444	5.997113911258778	0.562553694238657	-1.9404903891871146	6.466222056942078	1.000758751061863	-2.230548039496349	6.282504709767737	0.6801905400257466	-2.3016853541425695	5.647625834509314	0.4397229445986348	-1.5301907296996105	5.224741616074619	0.16324929584469094	-1.3148658355930702	5.49397240835188	0.10388735780691105	-1.7312251251473751	6.021797315326758	0.3859672901722886	-2.1906673657899587	5.978660774335333	-0.11637144203944676	-2.516532974139142	6.317153475505607	-0.011057360719596893	-2.9139997919540246
108	3.7241379310344827	4.92679720316751	-0.38213724503402885	-1.5029859785791255	4.785584407341695	-0.33771269183473057	-1.3391725661830944	4.314952530478187	-0.8247565277716764	-1.1859878270867468	4.072372357657505	-1.2985516723521253	-1.049671048880113	5.347735278741626	-2.224976633989941	-1.8813072049088153	5.002487089888043	-1.992889074477917	-1.6561035641216426	3.930731274788769	-1.3029256110890286	-0.9439853662564237	5.048139041814712	-0.48699409109288616	-1.6789313715371839	4.670707872886075	-1.1166765751565522	-1.5213016422258816	4.782912917497883	-2.0543797433623605	-1.4283580159983358	7.9392739745840375	-4.448830268597453	-3.0665546654096443	7.8543654030991465	-4.43687668514236	-2.963336339054999	4.568350915670551	-2.01963151451322	-1.251033902761696	6.011966260346308	0.5546409628592546	-1.9769338644250023	6.48079717174977	0.9839025090682396	-2.290086592308993	6.302831521688009	0.659409275086393	-2.3639863421342366	5.673449953853867	0.4360071271256132	-1.5777529450221075	5.2515032804411215	0.1108105339653086	-1.41557639374273	5.637206076502407	0.15306986804470182	-1.8701012895977476	6.01657271684889	0.39852189869434224	-2.1693550802516297	5.960118394209673	-0.11190055128969857	-2.490314204651718	6.363927024492026	-0.00027933483473677716	-2.974314448702792
109	3.7586206896551726	4.938549054512967	-0.3963100140665085	-1.5230907872429817	4.830523426605476	-0.3493074675946724	-1.389641967626424	4.3399426128519645	-0.8691476124575543	-1.2171599514997749	4.170625821946962	-1.3835112660060274	-1.115483249526616	5.629636220338661	-2.473312129740969	-2.031905274977602	5.224362558872018	-2.190134400217195	-1.7783810913983171	3.981740100580014	-1.3669501075733734	-0.9740572520969374	5.035831309617234	-0.47841417262235836	-1.662713174889201	4.64504151059494	-1.1134700227132928	-1.4997690623481488	4.728324528907794	-2.0156932497453375	-1.3963882681023267	7.922807074678342	-4.424034303363887	-3.072896595858731	7.836346707057031	-4.411314885393563	-2.968691175080067	4.526132831632901	-1.998266943270689	-1.2235188698418025	6.036818206962819	0.5659147174023794	-2.0052100998815137	6.505060468201121	1.0003330343779435	-2.3199503160942267	6.3262791462882015	0.6612606184234151	-2.40471422336489	5.739213542463356	0.4599216593314867	-1.6493507502403775	5.3428895434689005	0.09247280135754489	-1.5513121075163967	5.768192156871973	0.18877287325249958	-2.0139299265064876	6.017452292976115	0.4199620236111383	-2.147758818694041	5.966702759782133	-0.08558468890242334	-2.4837453938759335	6.389092708580603	0.020373525344110768	-2.9998358849795634
110	3.793103448275862	4.948938919897953	-0.4101236969962828	-1.541420323252027	4.86638720321505	-0.3770935207036623	-1.4422544193843134	4.365043097251782	-0.9111190501192998	-1.24638009620388	4.3589151034491875	-1.58102935187394	-1.2285690227294137	5.637022041553528	-2.4460564449564415	-2.0550047678379992	5.250871135543223	-2.165483609788333	-1.8155613824141508	4.149109140482924	-1.5639155406039453	-1.0641795035512391	5.047480619500089	-0.4833566595272335	-1.6764555240420353	4.623337618399445	-1.1113495541237504	-1.4816880812264226	4.823149010746438	-2.0923628687354885	-1.4474032866026487	7.872373598295744	-4.3811960479657905	-3.0533370720070643	7.78064344711208	-4.366535907428384	-2.9446658028414774	4.583107399141682	-2.0359331829702243	-1.2564606372130587	6.069409595578377	0.5781782820121292	-2.0461497806472604	6.530484342733068	1.017098239504743	-2.3525131040114378	6.363034238658115	0.6815449567592914	-2.449140214601314	5.7898929421385645	0.4772133475901148	-1.7077535670217	5.408399996027907	0.0899391203014896	-1.6365081281586156	5.827788768736524	0.2155656887975174	-2.0717669796470624	6.017577459973454	0.4289389028650784	-2.1381357540854995	5.9806409661409115	-0.05648846562032569	-2.4846881394220737	6.400391473784514	0.051505208164339594	-3.000404832341638
111	3.8275862068965516	4.972752649256535	-0.4307136312005486	-1.576268531561521	4.915950745690653	-0.4007256686259796	-1.5042489979279652	4.433782002857204	-0.9783721754270928	-1.3130233091588752	4.450682628331233	-1.652401166349716	-1.2861175785850034	5.572159664896665	-2.3545066330401965	-2.0388830809232297	5.249208362602548	-2.125606644819024	-1.832113501810764	4.258552749263892	-1.6331610229783338	-1.1334817552266627	5.036171303305198	-0.47516778612046423	-1.6613646763866454	4.620845153502422	-1.118667083080197	-1.4801515905398928	4.750525411450684	-2.0349001415198713	-1.4078218931366953	7.772917826533044	-4.298160723364678	-3.0127405595392047	7.5852320603667795	-4.2189702068064205	-2.8488916229532237	4.609585778607991	-2.0582814972685353	-1.2694194384674562	6.073995933378829	0.5775830828961283	-2.0549670371930016	6.567954807852904	1.0403511972067105	-2.4037665654294904	6.400344441620638	0.7017283452633433	-2.4956410966739457	5.835480628985337	0.4729296764267581	-1.7891407868079015	5.738561309626749	-0.0025394009955162383	-2.136592282367691	6.213724778323846	0.08436730523999038	-2.71584438839205	5.988446404854192	0.4376418832229914	-2.0817292143256294	5.96431692938788	-0.04793028998200767	-2.458236432524393	6.424847788239328	0.06572904657209479	-3.028508246607008
